<svg width="278" height="32" viewBox="0 0 278 32" fill="none" xmlns="http://www.w3.org/2000/svg">
<path d="M152.631 0H125.362C124.056 0 123 1.03125 123 2.30625V29.6875C123 30.9625 124.056 32 125.362 32H152.631C153.938 32 155 30.9625 155 29.6938V2.30625C155 1.03125 153.938 0 152.631 0ZM132.494 27.2687H127.744V11.9937H132.494V27.2687ZM130.119 9.9125C128.594 9.9125 127.363 8.68125 127.363 7.1625C127.363 5.64375 128.594 4.4125 130.119 4.4125C131.638 4.4125 132.869 5.64375 132.869 7.1625C132.869 8.675 131.638 9.9125 130.119 9.9125ZM150.269 27.2687H145.525V19.8438C145.525 18.075 145.494 15.7937 143.056 15.7937C140.587 15.7937 140.212 17.725 140.212 19.7188V27.2687H135.475V11.9937H140.025V14.0813H140.087C140.719 12.8813 142.269 11.6125 144.575 11.6125C149.381 11.6125 150.269 14.775 150.269 18.8875V27.2687Z" fill="white"/>
<g clip-path="url(#clip0_48_55)">
<path fill-rule="evenodd" clip-rule="evenodd" d="M16.0003 0.666759C12.202 0.66873 8.52816 2.01404 5.63582 4.46212C2.74347 6.91021 0.821194 10.3014 0.212716 14.0294C-0.395763 17.7574 0.349225 21.579 2.31448 24.811C4.27974 28.0429 7.33711 30.4744 10.9399 31.6707C11.7347 31.8182 12.0341 31.3256 12.0341 30.9068C12.0341 30.4879 12.0182 29.2734 12.0129 27.9457C7.56185 28.9073 6.6213 26.0674 6.6213 26.0674C5.89536 24.2233 4.84617 23.7386 4.84617 23.7386C3.39428 22.7534 4.95481 22.7718 4.95481 22.7718C6.56302 22.8851 7.4082 24.413 7.4082 24.413C8.8336 26.8445 11.1518 26.1412 12.0633 25.7302C12.2063 24.7002 12.6223 23.9994 13.0807 23.6016C9.5251 23.2012 5.78937 21.8366 5.78937 15.7407C5.76734 14.1597 6.35735 12.6308 7.43734 11.4703C7.27307 11.0699 6.72463 9.4524 7.59365 7.25533C7.59365 7.25533 8.93693 6.82857 11.9944 8.88601C14.6169 8.17292 17.3838 8.17292 20.0063 8.88601C23.0611 6.82857 24.4017 7.25533 24.4017 7.25533C25.2734 9.44713 24.725 11.0646 24.5607 11.4703C25.6441 12.631 26.2354 14.1626 26.2113 15.7459C26.2113 21.855 22.4676 23.2012 18.9068 23.5937C19.4791 24.089 19.9904 25.0558 19.9904 26.5416C19.9904 28.6702 19.9719 30.3825 19.9719 30.9068C19.9719 31.3309 20.2606 31.8261 21.0714 31.6707C24.6746 30.4743 27.7323 28.0424 29.6975 24.8099C31.6627 21.5774 32.4073 17.7552 31.7981 14.0268C31.189 10.2985 29.2657 6.90723 26.3724 4.45957C23.4791 2.0119 19.8045 0.667481 16.0056 0.666759H16.0003Z" fill="white"/>
<path d="M6.05925 23.5097C6.02481 23.5887 5.89764 23.6124 5.79431 23.5571C5.69098 23.5018 5.61415 23.399 5.65124 23.3174C5.68834 23.2357 5.81286 23.2146 5.91619 23.27C6.01952 23.3253 6.09899 23.4306 6.05925 23.5097Z" fill="white"/>
<path d="M6.70839 24.2285C6.65352 24.256 6.59075 24.2637 6.53082 24.2502C6.47089 24.2368 6.41753 24.203 6.37986 24.1548C6.27653 24.0441 6.25533 23.8913 6.33481 23.8228C6.41429 23.7543 6.55738 23.786 6.6607 23.8966C6.76403 24.0072 6.78787 24.16 6.70839 24.2285Z" fill="white"/>
<path d="M7.339 25.1427C7.24097 25.2112 7.07405 25.1427 6.98132 25.0057C6.95568 24.9812 6.93529 24.9517 6.92136 24.9191C6.90743 24.8865 6.90024 24.8515 6.90024 24.8161C6.90024 24.7806 6.90743 24.7456 6.92136 24.713C6.93529 24.6804 6.95568 24.651 6.98132 24.6264C7.07935 24.5605 7.24627 24.6264 7.339 24.7607C7.43173 24.8951 7.43438 25.0742 7.339 25.1427Z" fill="white"/>
<path d="M8.19474 26.0278C8.10731 26.1253 7.9298 26.0989 7.78408 25.9672C7.63836 25.8355 7.60391 25.6564 7.69134 25.5615C7.77877 25.4667 7.95628 25.493 8.1073 25.6221C8.25832 25.7512 8.28747 25.933 8.19474 26.0278Z" fill="white"/>
<path d="M9.39489 26.5444C9.35515 26.6682 9.17499 26.7235 8.99483 26.6708C8.81466 26.6181 8.69544 26.4706 8.72988 26.3442C8.76432 26.2177 8.94714 26.1598 9.12995 26.2177C9.31276 26.2757 9.42934 26.4153 9.39489 26.5444Z" fill="white"/>
<path d="M10.7038 26.6337C10.7038 26.7628 10.5554 26.8734 10.3647 26.876C10.1739 26.8787 10.0176 26.7733 10.0176 26.6442C10.0176 26.5151 10.1659 26.4045 10.3567 26.4019C10.5475 26.3992 10.7038 26.502 10.7038 26.6337Z" fill="white"/>
<path d="M11.9225 26.431C11.9464 26.5601 11.8139 26.6945 11.6231 26.7261C11.4324 26.7577 11.2655 26.6813 11.2416 26.5548C11.2178 26.4284 11.3556 26.2914 11.541 26.2572C11.7265 26.2229 11.8987 26.302 11.9225 26.431Z" fill="white"/>
</g>
<path fill-rule="evenodd" clip-rule="evenodd" d="M249.736 7.52764L262 16.1127L274.264 7.52764C274.059 6.84025 273.417 6.33332 272.667 6.33332H251.333C250.583 6.33332 249.941 6.84025 249.736 7.52764ZM274.333 9.92065L262.573 18.1526C262.229 18.3936 261.771 18.3936 261.427 18.1526L249.667 9.92065V24C249.667 24.9144 250.419 25.6667 251.333 25.6667H272.667C273.581 25.6667 274.333 24.9144 274.333 24V9.92065ZM247.667 7.99999C247.667 5.98104 249.314 4.33332 251.333 4.33332H272.667C274.686 4.33332 276.333 5.98104 276.333 7.99999V24C276.333 26.0189 274.686 27.6667 272.667 27.6667H251.333C249.314 27.6667 247.667 26.0189 247.667 24V7.99999Z" fill="white"/>
<defs>
<clipPath id="clip0_48_55">
<rect width="32" height="32" fill="white"/>
</clipPath>
</defs>
</svg>
