<svg width="28" height="28" viewBox="0 0 28 28" fill="none" xmlns="http://www.w3.org/2000/svg">
<path fill-rule="evenodd" clip-rule="evenodd" d="M1.99251 13.0233H7.856C8.11801 9.09555 9.48345 5.33075 11.7809 2.15745C6.49978 3.14087 2.4301 7.5697 1.99251 13.0233ZM14 2.47276C11.5602 5.47825 10.0986 9.16089 9.81428 13.0233H18.1857C17.9014 9.16089 16.4398 5.47825 14 2.47276ZM18.1857 14.9767C17.9014 18.8391 16.4398 22.5217 14 25.5272C11.5602 22.5217 10.0986 18.8391 9.81428 14.9767H18.1857ZM7.856 14.9767H1.99251C2.4301 20.4303 6.49978 24.8591 11.7809 25.8425C9.48344 22.6692 8.11801 18.9045 7.856 14.9767ZM16.2191 25.8425C18.5166 22.6692 19.882 18.9045 20.144 14.9767H26.0075C25.5699 20.4303 21.5002 24.8591 16.2191 25.8425ZM26.0075 13.0233H20.144C19.882 9.09555 18.5166 5.33075 16.2191 2.15745C21.5002 3.14087 25.5699 7.5697 26.0075 13.0233ZM0 14C0 6.26801 6.26801 0 14 0C21.732 0 28 6.26801 28 14C28 21.732 21.732 28 14 28C6.26801 28 0 21.732 0 14Z" fill="#D3D3D3"/>
</svg>
