<svg width="38" height="38" viewBox="0 0 38 38" fill="none" xmlns="http://www.w3.org/2000/svg">
<g clip-path="url(#clip0_143_87)">
<path d="M38 29.431C37.447 29.6402 36.8365 29.6397 36.2837 29.4297C35.731 29.2197 35.2742 28.8146 34.9996 28.291L29.5371 20.7369L28.7454 19.6808L22.4074 28.3005C22.1492 28.8022 21.7173 29.1927 21.1921 29.399C20.667 29.6053 20.0848 29.6133 19.5542 29.4215L27.721 18.4648L20.1242 8.56741C20.6704 8.37056 21.2678 8.36795 21.8158 8.56002C22.3637 8.75209 22.8287 9.1271 23.1325 9.62191L28.7945 17.2694L34.4882 9.65358C34.7483 9.16083 35.1804 8.78083 35.7023 8.58582C36.2243 8.39082 36.7997 8.39441 37.3192 8.59591L34.371 12.5083L30.3779 17.7064C30.267 17.8053 30.1782 17.9266 30.1175 18.0622C30.0567 18.1978 30.0253 18.3447 30.0253 18.4933C30.0253 18.6419 30.0567 18.7889 30.1175 18.9245C30.1782 19.0601 30.267 19.1813 30.3779 19.2802L37.9842 29.4326L38 29.431ZM0.00318566 18.3287L0.668186 15.0432C2.49535 8.54683 9.94335 5.84408 15.067 9.86575C18.0674 12.2233 18.8164 15.561 18.6691 19.323H1.76702C1.4931 26.0411 6.34127 30.0976 12.54 28.025C13.5449 27.6633 14.4444 27.058 15.1578 26.2632C15.8713 25.4685 16.3765 24.5092 16.6282 23.4713C16.9559 22.4168 17.4959 22.2363 18.487 22.5403C18.3219 23.8266 17.8672 25.0587 17.1571 26.1439C16.4471 27.2291 15.5002 28.1391 14.3878 28.8056C12.5502 29.8107 10.4418 30.2091 8.36417 29.9438C6.28652 29.6785 4.34595 28.763 2.81994 27.3283C1.31107 25.63 0.39914 23.4848 0.223269 21.2198C0.223269 20.8477 0.0966023 20.4994 0.0111023 20.1653C0.00339471 19.5537 -0.000299815 18.942 1.89941e-05 18.3302L0.00318566 18.3287ZM1.7876 17.8758H17.0731C16.9781 13.0055 13.9049 9.55066 9.8056 9.519C5.24244 9.45566 1.9776 12.8345 1.77652 17.8537L1.7876 17.8758Z" fill="white"/>
</g>
<defs>
<clipPath id="clip0_143_87">
<rect width="38" height="38" fill="white"/>
</clipPath>
</defs>
</svg>
