<svg width="40" height="40" viewBox="0 0 40 40" fill="none" xmlns="http://www.w3.org/2000/svg">
<path d="M20 0C9 0 0 9 0 20C0 31 9 40 20 40C31 40 40 31 40 20C40 9 31 0 20 0ZM20 4.285C25.285 4.285 29.8583 6.85667 32.715 10.715L30.5717 12.5733C28.1433 9.28667 24.285 7.14333 20 7.14333C14.4283 7.14333 9.715 10.715 7.85667 15.715L24.285 32.1433C28.4283 30.715 31.5733 27.1433 32.5733 22.8567H25.715V20H35.715C35.715 27.4283 30.4283 33.7133 23.4283 35.2833L4.71667 16.5733C6.28667 9.57167 12.5717 4.28333 20 4.28333V4.285ZM4.285 20.285L19.8583 35.715C15.8583 35.5717 11.8567 34.1433 8.85667 31.1433C5.85667 28.1433 4.285 24.1417 4.285 20.285Z" fill="white"/>
</svg>
