<svg width="32" height="32" viewBox="0 0 32 32" fill="none" xmlns="http://www.w3.org/2000/svg">
<g clip-path="url(#clip0_156_145)">
<path fill-rule="evenodd" clip-rule="evenodd" d="M16.0003 0.666759C12.202 0.66873 8.52813 2.01404 5.63578 4.46212C2.74344 6.91021 0.821164 10.3014 0.212685 14.0294C-0.395793 17.7574 0.349195 21.579 2.31445 24.811C4.27971 28.0429 7.33708 30.4744 10.9399 31.6707C11.7347 31.8182 12.0341 31.3256 12.0341 30.9068C12.0341 30.4879 12.0182 29.2734 12.0129 27.9457C7.56182 28.9073 6.62127 26.0674 6.62127 26.0674C5.89533 24.2233 4.84614 23.7386 4.84614 23.7386C3.39425 22.7534 4.95478 22.7718 4.95478 22.7718C6.56299 22.8851 7.40817 24.413 7.40817 24.413C8.83357 26.8445 11.1518 26.1412 12.0632 25.7302C12.2063 24.7002 12.6223 23.9994 13.0806 23.6016C9.52507 23.2012 5.78934 21.8366 5.78934 15.7407C5.76731 14.1597 6.35732 12.6308 7.43731 11.4703C7.27304 11.0699 6.7246 9.4524 7.59362 7.25533C7.59362 7.25533 8.9369 6.82857 11.9944 8.88601C14.6169 8.17292 17.3838 8.17292 20.0063 8.88601C23.0611 6.82857 24.4017 7.25533 24.4017 7.25533C25.2734 9.44713 24.7249 11.0646 24.5607 11.4703C25.6441 12.631 26.2353 14.1626 26.2113 15.7459C26.2113 21.855 22.4676 23.2012 18.9067 23.5937C19.479 24.089 19.9904 25.0558 19.9904 26.5416C19.9904 28.6702 19.9718 30.3825 19.9718 30.9068C19.9718 31.3309 20.2606 31.8261 21.0713 31.6707C24.6746 30.4743 27.7322 28.0424 29.6974 24.8099C31.6627 21.5774 32.4073 17.7552 31.7981 14.0268C31.1889 10.2985 29.2657 6.90723 26.3724 4.45957C23.4791 2.0119 19.8044 0.667481 16.0056 0.666759H16.0003Z" fill="white"/>
<path d="M6.05921 23.5097C6.02476 23.5887 5.89759 23.6124 5.79426 23.5571C5.69093 23.5018 5.61411 23.399 5.6512 23.3174C5.68829 23.2357 5.81281 23.2146 5.91614 23.27C6.01947 23.3253 6.09895 23.4306 6.05921 23.5097Z" fill="white"/>
<path d="M6.70835 24.2285C6.65348 24.256 6.5907 24.2637 6.53077 24.2502C6.47084 24.2368 6.41748 24.203 6.37982 24.1548C6.27649 24.0441 6.25528 23.8913 6.33477 23.8228C6.41425 23.7543 6.55733 23.786 6.66066 23.8966C6.76399 24.0072 6.78783 24.16 6.70835 24.2285Z" fill="white"/>
<path d="M7.33903 25.1427C7.241 25.2112 7.07408 25.1427 6.98135 25.0057C6.95571 24.9812 6.93532 24.9517 6.92139 24.9191C6.90746 24.8865 6.90027 24.8515 6.90027 24.8161C6.90027 24.7806 6.90746 24.7456 6.92139 24.713C6.93532 24.6804 6.95571 24.651 6.98135 24.6264C7.07938 24.5605 7.2463 24.6264 7.33903 24.7607C7.43176 24.8951 7.43441 25.0742 7.33903 25.1427Z" fill="white"/>
<path d="M8.19474 26.0278C8.10731 26.1253 7.9298 26.0989 7.78408 25.9672C7.63836 25.8355 7.60391 25.6564 7.69134 25.5615C7.77877 25.4667 7.95628 25.493 8.1073 25.6221C8.25832 25.7512 8.28747 25.933 8.19474 26.0278Z" fill="white"/>
<path d="M9.39494 26.5444C9.3552 26.6682 9.17503 26.7235 8.99487 26.6708C8.81471 26.6181 8.69548 26.4706 8.72993 26.3442C8.76437 26.2177 8.94718 26.1598 9.13 26.2177C9.31281 26.2757 9.42938 26.4153 9.39494 26.5444Z" fill="white"/>
<path d="M10.7038 26.6337C10.7038 26.7628 10.5554 26.8734 10.3647 26.876C10.1739 26.8787 10.0176 26.7733 10.0176 26.6442C10.0176 26.5151 10.1659 26.4045 10.3567 26.4019C10.5475 26.3992 10.7038 26.502 10.7038 26.6337Z" fill="white"/>
<path d="M11.9225 26.431C11.9463 26.5601 11.8139 26.6945 11.6231 26.7261C11.4323 26.7577 11.2654 26.6813 11.2416 26.5548C11.2177 26.4284 11.3555 26.2914 11.541 26.2572C11.7264 26.2229 11.8986 26.302 11.9225 26.431Z" fill="white"/>
</g>
<defs>
<clipPath id="clip0_156_145">
<rect width="32" height="32" fill="white"/>
</clipPath>
</defs>
</svg>
