<svg width="1392" height="221" viewBox="0 0 1392 221" fill="none" xmlns="http://www.w3.org/2000/svg">
<path d="M383.98 86.1697L392.862 87.0489L395.79 90.2725L400.475 89.5888L408.577 89.0026L411.798 91.9333L418.435 90.3703L422.827 89.8818L425.365 92.4217L430.538 94.0824L433.857 94.1802L438.932 95.6455L441.763 94.6686L445.667 94.1802L448.107 92.9103L452.792 92.8124L460.796 92.6171L465.286 92.2263H470.556L474.363 93.0078L477.389 91.6402L481.878 92.9101L484.026 93.7893L491.049 95.0592L495.246 93.1055L499.833 91.1517L507.739 91.6402L509.399 90.0772L513.791 88.6119L519.549 90.4679L522.185 88.3188L532.631 80.7969L534.876 79.3316L539.171 77.1824L540.44 73.568L543.075 69.4651L545.808 67.9998L546.979 64.9715L548.639 62.4316L551.274 61.3571H554.885L561.523 63.0177H563.475L565.817 63.7992L567.867 63.9946L574.207 63.4085L579.572 67.0229L587.576 67.609L597.824 67.8044L599.581 68.9766L607.585 69.3674L610.513 71.7119L617.443 73.3725L625.837 74.6425L629.644 72.591L638.331 72.4935L643.016 71.4189L655.7 66.6322L659.604 64.0924L671.219 65.6554L674.733 62.4317L679.223 61.3571L687.812 60.478L701.054 58.0358L712.962 60.9664L717.354 57.645L736.561 43.1322L750.812 42.3507L762.991 34.4888L767.872 31.3628L774.606 31.5582L779.389 29.5068L783.196 27.1623L786.124 24.134L788.466 20.7149L791.199 17.5889L797.982 8.87557L800.325 6.14035L808.644 3.02832L812.744 3.22367L819.771 0L827.385 1.563L838.219 2.83294L850.286 8.70515H854.776L862.704 13.7849L870.673 19.4589L880.922 19.6543L883.069 22.878L891.463 26.1994L899.088 41.4855L909.825 43.2438L918.533 56.096L924.487 60.1988L932.685 61.8595L937.956 55.3145L941.665 53.5561L945.179 53.4585L954.842 54.1424L959.429 56.1938L967.335 54.6308L974.558 55.0215L980.122 58.0499L990.663 56.9753L994.079 57.0731L1000.91 57.8546L1012.33 61.2737L1019.16 59.2222L1033.12 60.2968L1038.49 61.6645L1054.39 75.1453L1066.2 77.8805L1069.82 77.099L1081.43 77.0015L1094.71 78.8575L1103.59 80.7136L1115.2 90.287L1133.41 95.8552L1139.27 97.2228L1145.81 96.7343L1151.47 89.9939L1163.28 90.8731L1177.73 84.2304L1183 84.4257L1187.29 84.8165L1194.03 80.1275L1205.93 81.4951L1215.01 80.909L1221.16 73.6801L1238.93 67.6235L1247.52 64.9859L1259.43 62.7391L1274.26 65.8651L1285.88 63.6183L1305.59 66.1581L1315.45 65.6697L1326.48 61.6645L1335.64 64.0091L1354.77 69.1865L1362.09 64.9859L1376.53 65.572L1388.44 70.7495L1393.42 72.4102L1392.4 219.846H1.63484L1.59692 123.276L2.01768 123.194L383.98 86.1697ZM2.01768 123.193L11.7782 121.533L17.0489 119.09L23.4909 116.648L31.2993 116.257L37.058 113.131L42.3287 110.005L47.697 109.81L54.8222 109.908L56.1887 110.592L57.7504 111.569L59.9953 113.913L64.1923 116.16L66.6325 116.551L71.8057 119.677L75.2219 119.286L78.5405 121.142L80.5902 121.337L86.3489 121.24L89.4723 122.314L94.1574 123.584L96.3047 123.877L100.209 122.705L103.235 121.924L109.288 116.355L115.239 110.494L120.608 107.27L126.367 105.219L131.345 105.609L135.249 103.363L140.715 103.167L145.107 100.139L148.328 99.2598H151.94L158.479 100.725L161.553 105.463L166.824 106.538L169.606 110.25L176.09 115.229L181.263 114.838L186.553 115.766L191.636 118.232L197.326 116.699L199.376 117.969L204.549 119.337L210.112 118.946L214.903 119.134L221.616 121.58L226.677 124.439C226.677 124.439 230.18 123.875 231.537 122.843C233.546 121.315 237.714 121.514 237.714 121.514L246.813 123.323L252.136 120.24L255.943 117.798L260.853 111.016L266.514 107.206L267.881 107.01H270.126L272.343 104.638L275.388 102.684L278.804 100.144L281.83 96.6276L285.734 94.967L290.237 90.468L294.239 87.9282L301.071 89.5889L303.414 87.9282L306.049 87.8304L314.053 87.7328L320.3 88.7097L328.178 86.5606L334.229 86.9513L338.134 88.5143L345.747 88.2212L352.677 87.5374L354.922 84.8022L366.411 82.1646L367.68 82.9461L374.61 84.0207L378.319 83.6299L383.98 86.1698" fill="url(#paint0_linear_103_157)"/>
<path d="M683.591 151.374L687.466 149.358L689.884 149.393L694.961 148.426L697.24 146.975L707.812 143.741L716.93 147.609L729.916 142.221L737.238 139.32L748.705 135.59L751.191 134.346L752.297 132.136L756.441 130.202L761 126.195L765.145 122.604L767.631 117.077L772.328 113.9L777.026 112.38L785.591 108.927L790.979 107.821L800.511 110.308L804.103 108.65H807.971L811.563 107.545L821.51 105.611L826.207 101.743L831.319 102.986L837.812 102.848L842.786 106.302L849.693 109.203L860.469 113.347L871.521 115.834L890.171 117.768L898.848 121.913L908.934 123.847L915.841 128.406L922.749 128.268L929.932 124.814L936.564 122.604L944.576 112.657L949.274 110.446L958.944 109.065L962.398 103.539L968.2 99.3942L972.483 97.3219L975.66 94.0063L978.424 92.0723L983.811 90.5526L990.028 90L997.212 90.2763L1003.01 95.2497L1009.92 97.7364L1019 101.743L1024.98 108.098L1030.23 111.828L1040.73 117.216L1057.03 123.018L1073.72 131.998L1074.27 135.452L1094.58 140.701L1106.05 138.353L1112.68 136.557L1124.15 138.491L1144.45 134.485L1157.33 137.833L1177.36 144.05L1187.58 140.182L1198.64 142.53L1210.52 142.254L1220.46 142.807L1229.44 146.675L1235.8 147.918L1242.57 146.122L1252.38 140.043L1260.53 138.524L1267.85 131.616L1274.9 132.307L1280.28 130.373L1290.78 132.722L1301.14 134.379L1304.05 136.313L1307.5 139.353L1315.65 140.872L1320.62 141.978L1329.05 144.05L1337.48 141.425L1347.01 140.182L1356.54 139.076L1366.35 135.208L1377.54 139.491L1393.42 127.957L1391.57 219.674L683.79 219.769L680 151.481L683.591 151.374Z" fill="url(#paint1_linear_103_157)"/>
<path d="M417.274 141.769L419.02 140.805" stroke="black" stroke-width="0.724999"/>
<path d="M0 183.638L0.00939599 152.633L5.90776 155.002C5.90776 155.002 12.4712 157.278 15.2828 155.842C16.9479 154.992 19.0589 153.644 19.9739 152.847C21.449 151.562 21.8799 151.738 23.7758 154.397C25.3122 156.552 26.4922 157.245 27.9684 156.86C30.7325 156.138 36.6109 147.115 38.631 144.198C40.1986 141.934 45.7913 137.342 45.7913 137.342L54.8889 141.627C54.8889 141.627 57.4529 143.415 65.4116 143.415C73.6038 143.415 76.3474 143.014 79.8871 141.296L84.2546 139.177L93.3433 142.855C104.753 147.472 120.607 149.733 124.411 147.284C126.539 145.914 127.802 150.911 139.309 148.753L162.391 144.425L180.612 141.899C192.848 140.202 199.064 129.772 205.003 127.685L215.487 124L225.042 125.797C225.042 125.797 236.339 134.068 245.206 132.94C253.089 131.937 256.839 131.922 262.739 132.873C267.858 133.697 271.084 133.763 272.887 133.078C274.341 132.526 278.721 132.342 282.621 132.668C287.936 133.113 290.752 132.847 293.863 131.603C299.838 129.216 306.308 129.422 308.712 132.077C312.999 136.811 327.231 141.344 337.5 141.245C339.452 141.226 343.431 141.166 346.344 141.112C349.883 141.046 353.024 141.717 355.806 143.135C359.233 144.881 361.887 145.268 370.78 145.319C376.725 145.354 382.487 145.849 383.585 146.421C388.486 148.975 412.821 145.758 420.41 141.553C424.173 139.468 425.419 139.257 429.479 140.014C432.069 140.497 439.285 140.642 445.516 140.335C455.133 139.862 458.279 140.127 466.345 142.088C471.57 143.358 476.385 144.821 477.045 145.337C479.197 147.022 494.257 140.825 498.873 138.188C504.461 134.995 505.146 136.776 518.253 141.008C528.884 144.44 531.326 145.494 537.001 146.24C547.045 147.562 567.703 145.071 569.364 146.403C570.073 146.972 574.962 147.662 580.229 147.937C587.965 148.341 590.287 148.121 592.316 146.794C594.088 145.634 595.034 145.484 595.529 146.284C596.347 147.606 608.016 146.803 610.974 145.222C612.242 144.544 616.206 144.729 623.395 145.803C631.933 147.079 634.861 147.151 638.695 146.179C642.378 145.246 643.947 145.251 645.725 146.201C647.283 147.034 650.747 147.233 656.555 146.823C668.166 146.005 676.056 147.91 684.148 153.485L690.381 157.78L701.188 157.807C707.131 157.824 712.798 158.215 713.78 158.68C714.763 159.144 716.981 159.317 718.709 159.064C721.032 158.723 725.719 160.302 736.686 165.12C744.846 168.704 752.662 172.684 754.055 173.964C759.933 179.363 766.745 182.579 772.301 182.579C775.246 182.579 788.317 180.991 792 182.073C792 182.073 811.585 172.252 831.19 171.607L849.645 171L859 175.7C865.949 179.191 872.645 182.62 876 182.62C876 182.62 882.406 188.569 891.974 190.211L909.369 193.196L913.269 190.737C915.414 189.385 919.131 187.978 921.529 187.611C923.927 187.244 927.064 186.353 928.5 185.631C931.983 183.88 948.748 179.729 953.5 182.073C959.138 184.854 964.547 178.447 974.5 176.5C979.916 175.44 989.311 185.606 997.5 185.631C1008.59 185.666 1016.68 184.789 1019.5 183.126C1022.34 181.451 1029 177.5 1047.5 168C1053.5 168 1066.5 184.221 1071.5 187.676C1074.94 188.113 1081.52 193.495 1085.78 192.823C1091.61 191.902 1095.01 191.966 1102.7 193.14C1113.46 194.781 1119.11 194.037 1124.49 190.27C1128.67 187.341 1133.87 185.649 1138.73 185.631C1140.99 185.623 1143.33 185.128 1143.93 184.532C1144.52 183.935 1149.06 183.303 1154.01 183.126C1158.96 182.949 1164.72 182.475 1166.82 182.073C1169.92 181.48 1171.73 181.886 1176.45 184.221C1181.44 186.691 1185.08 187.456 1192.91 187.676C1199.66 187.866 1211.63 186.45 1214.83 185.081C1216.99 184.161 1220.65 183.432 1222.97 183.461C1225.49 183.493 1227.68 182.918 1228.41 182.035C1229.33 180.928 1232.05 180.555 1239.22 180.555C1247.42 180.555 1249.41 180.899 1253.03 182.949C1255.36 184.266 1260.11 186.109 1263.58 187.044C1269.79 188.719 1269.94 188.711 1272.86 186.553C1275.21 184.815 1277.73 184.252 1284.99 183.839C1293.68 183.344 1294.3 183.447 1297.19 185.876C1300.06 188.285 1300.74 188.404 1308.74 187.905C1313.78 187.591 1316.93 173.899 1318.98 174.569C1321.69 175.456 1323.51 175.375 1327.41 174.195C1333.98 172.21 1338.48 172.341 1345.24 174.716C1351.91 177.059 1359.16 177.285 1363.04 175.271C1367.77 172.824 1375.9 172.25 1379.51 174.11C1381.23 175 1384.49 175.728 1386.74 175.728L1392.57 182.035V187.905V220.032H696.285H0V183.638Z" fill="url(#paint2_linear_103_157)"/>
<defs>
<linearGradient id="paint0_linear_103_157" x1="727.404" y1="-48.1961" x2="727.404" y2="182.419" gradientUnits="userSpaceOnUse">
<stop stop-color="#DB0079"/>
<stop offset="1" stop-color="#EE69B2" stop-opacity="0"/>
</linearGradient>
<linearGradient id="paint1_linear_103_157" x1="1053.07" y1="79.8279" x2="1053.07" y2="220" gradientUnits="userSpaceOnUse">
<stop stop-color="#00C4D0"/>
<stop offset="1" stop-color="#21A2EB" stop-opacity="0"/>
<stop offset="1" stop-color="#214EEB" stop-opacity="0.19"/>
</linearGradient>
<linearGradient id="paint2_linear_103_157" x1="696" y1="104" x2="696" y2="236" gradientUnits="userSpaceOnUse">
<stop stop-color="#292929"/>
<stop offset="0.901042"/>
</linearGradient>
</defs>
</svg>
