<?xml version="1.0" encoding="UTF-8" standalone="no"?>
<svg
   xmlns:dc="http://purl.org/dc/elements/1.1/"
   xmlns:cc="http://creativecommons.org/ns#"
   xmlns:rdf="http://www.w3.org/1999/02/22-rdf-syntax-ns#"
   xmlns:svg="http://www.w3.org/2000/svg"
   xmlns="http://www.w3.org/2000/svg"
   xmlns:sodipodi="http://sodipodi.sourceforge.net/DTD/sodipodi-0.dtd"
   xmlns:inkscape="http://www.inkscape.org/namespaces/inkscape"
   version="1.1"
   id="svg2"
   xml:space="preserve"
   width="183.32933"
   height="227.032"
   viewBox="0 0 183.32933 227.032"
   sodipodi:docname="Logo.svg"
   inkscape:version="1.0.1 (3bc2e813f5, 2020-09-07)"><metadata
     id="metadata8"><rdf:RDF><cc:Work
         rdf:about=""><dc:format>image/svg+xml</dc:format><dc:type
           rdf:resource="http://purl.org/dc/dcmitype/StillImage" /><dc:title></dc:title></cc:Work></rdf:RDF></metadata><defs
     id="defs6"><clipPath
       clipPathUnits="userSpaceOnUse"
       id="clipPath34"><path
         d="M 0,170.274 H 137.497 V 0 H 0 Z"
         id="path32" /></clipPath><clipPath
       clipPathUnits="userSpaceOnUse"
       id="clipPath42"><path
         d="M 44.8132,64.202 H 94.3969 V 43.2243 H 44.8132 Z"
         id="path40" /></clipPath></defs><sodipodi:namedview
     pagecolor="#ffffff"
     bordercolor="#666666"
     borderopacity="1"
     objecttolerance="10"
     gridtolerance="10"
     guidetolerance="10"
     inkscape:pageopacity="0"
     inkscape:pageshadow="2"
     inkscape:window-width="1920"
     inkscape:window-height="1016"
     id="namedview4"
     showgrid="false"
     showguides="true"
     inkscape:zoom="3.6375445"
     inkscape:cx="4.7928766"
     inkscape:cy="113.516"
     inkscape:window-x="0"
     inkscape:window-y="343"
     inkscape:window-maximized="0"
     inkscape:current-layer="g10" /><g
     id="g10"
     inkscape:groupmode="layer"
     inkscape:label="Logo"
     transform="matrix(1.3333333,0,0,-1.3333333,0,227.032)"><g
       id="g12"
       transform="translate(113.517,41.9103)"><path
         d="M 0,0 -16.068,-17.248 23.98,-41.617 21.36,0.092 Z"
         style="fill:#69ba5d;fill-opacity:1;fill-rule:nonzero;stroke:none"
         id="path14" /></g><g
       id="g16"
       transform="translate(134.4402,48.9536)"><path
         d="m 0,0 -2.679,42.641 h -17.018 l 0.635,-42.646 z"
         style="fill:#69ba5d;fill-opacity:1;fill-rule:nonzero;stroke:none"
         id="path18" /></g><g
       id="g20"
       transform="translate(5.7357,91.5939)"><path
         d="m 0,0 -5.736,-91.301 68.75,41.832 22.515,-13.7 16.94,18.616 L 101.833,0 Z"
         style="fill:#5288ff;fill-opacity:1;fill-rule:nonzero;stroke:none"
         id="path22" /></g><g
       id="g24"
       transform="translate(14.3334)"><path
         d="M 0,0 H 108.831 L 54.416,33.111 Z"
         style="fill:#69ba5d;fill-opacity:1;fill-rule:nonzero;stroke:none"
         id="path26" /></g><g
       id="g28"><g
         id="g30"
         clip-path="url(#clipPath34)"><g
           id="g36"><g
             id="g38" /><g
             id="g50"><g
               clip-path="url(#clipPath42)"
               opacity="0.399994"
               id="g48"><g
                 transform="translate(94.3972,53.7134)"
                 id="g46"><path
                   d="m 0,0 c 0,-5.793 -11.1,-10.489 -24.792,-10.489 -13.692,0 -24.792,4.696 -24.792,10.489 0,5.792 11.1,10.489 24.792,10.489 C -11.1,10.489 0,5.792 0,0"
                   style="fill:#000000;fill-opacity:1;fill-rule:nonzero;stroke:none"
                   id="path44" /></g></g></g></g><g
           id="g52"
           transform="translate(66.6882,113.3818)"><path
             d="m 0,0 c -2.25,-0.992 -6.484,-1.984 -11.569,-1.984 -11.781,0 -18.654,7.441 -14.982,21.145 3.507,13.085 14.749,21.952 27.708,21.952 5.208,0 8.196,-1.116 9.423,-1.861 L 8.098,34.85 c -1.782,0.991 -4.495,1.736 -7.968,1.736 -9.797,0 -17.985,-6.263 -20.926,-17.239 -2.742,-10.231 1.387,-16.805 11.556,-16.805 3.286,0 6.817,0.683 9.27,1.737 z"
             style="fill:#ff5050;fill-opacity:1;fill-rule:nonzero;stroke:none"
             id="path54" /></g><g
           id="g56"
           transform="translate(83.4128,153.8125)"><path
             d="m 0,0 h 5.395 l -9.987,-37.268 h 17.858 l -1.212,-4.527 h -23.252 z"
             style="fill:#ff5050;fill-opacity:1;fill-rule:nonzero;stroke:none"
             id="path58" /></g><g
           id="g60"
           transform="translate(69.6052,96.9531)"><path
             d="m 0,0 c -18.248,0 -33.041,14.793 -33.041,33.041 0,18.248 14.793,33.041 33.041,33.041 18.248,0 33.041,-14.793 33.041,-33.041 C 33.041,14.793 18.248,0 0,0 m 0,73.321 c -21.99,0 -39.816,-17.827 -39.816,-39.817 0,-21.99 36.464,-73.606 39.816,-73.606 3.746,0 39.816,51.616 39.816,73.606 0,21.99 -17.826,39.817 -39.816,39.817"
             style="fill:#ff5050;fill-opacity:1;fill-rule:nonzero;stroke:none"
             id="path62" /></g></g></g></g></svg>
