<svg width="25" height="25" viewBox="0 0 25 25" fill="none" xmlns="http://www.w3.org/2000/svg">
<path fill-rule="evenodd" clip-rule="evenodd" d="M4.553 2.72439C5.07196 2.20543 5.77582 1.91388 6.50973 1.91388H13.5536C13.7538 1.91388 13.9457 1.99339 14.0873 2.13493L21.1312 9.17881C21.2727 9.32034 21.3522 9.5123 21.3522 9.71246V20.7814C21.3522 21.5153 21.0606 22.2192 20.5417 22.7382C20.0227 23.2571 19.3189 23.5487 18.585 23.5487H6.50973C5.77581 23.5487 5.07196 23.2571 4.553 22.7382C4.03404 22.2192 3.74249 21.5153 3.74249 20.7814V4.68112C3.74249 3.9472 4.03404 3.24334 4.553 2.72439ZM6.50973 3.42328C6.17613 3.42328 5.8562 3.5558 5.62031 3.79169C5.38442 4.02758 5.2519 4.34752 5.2519 4.68112V20.7814C5.2519 21.115 5.38442 21.435 5.62031 21.6708C5.8562 21.9067 6.17613 22.0393 6.50973 22.0393H18.585C18.9186 22.0393 19.2385 21.9067 19.4744 21.6708C19.7103 21.435 19.8428 21.115 19.8428 20.7814V10.4672H13.5536C13.1368 10.4672 12.7989 10.1293 12.7989 9.71246L12.7989 3.42328H6.50973ZM14.3083 4.49059L18.7755 8.95776H14.3083L14.3083 4.49059Z" fill="white"/>
</svg>
