<svg width="32" height="32" viewBox="0 0 32 32" fill="none" xmlns="http://www.w3.org/2000/svg">
<path fill-rule="evenodd" clip-rule="evenodd" d="M3.73564 7.52764L16 16.1127L28.2643 7.52764C28.0586 6.84025 27.4172 6.33332 26.6666 6.33332H5.33329C4.58269 6.33332 3.94132 6.84025 3.73564 7.52764ZM28.3333 9.92065L16.5734 18.1526C16.2291 18.3936 15.7708 18.3936 15.4265 18.1526L3.66663 9.92065V24C3.66663 24.9144 4.41891 25.6667 5.33329 25.6667H26.6666C27.581 25.6667 28.3333 24.9144 28.3333 24V9.92065ZM1.66663 7.99999C1.66663 5.98104 3.31434 4.33332 5.33329 4.33332H26.6666C28.6856 4.33332 30.3333 5.98104 30.3333 7.99999V24C30.3333 26.0189 28.6856 27.6667 26.6666 27.6667H5.33329C3.31434 27.6667 1.66663 26.0189 1.66663 24V7.99999Z" fill="white"/>
</svg>
