<svg width="1393" height="221" viewBox="0 0 1393 221" fill="none" xmlns="http://www.w3.org/2000/svg">
<path d="M384.157 86.2299L393.034 87.1097L395.96 90.3356L400.643 89.6513L408.739 89.0648L411.958 91.9975L418.591 90.4334L422.981 89.9446L425.517 92.4862L430.687 94.1481L434.004 94.246L439.076 95.7123L441.905 94.7348L445.807 94.246L448.246 92.9752L452.928 92.8772L460.927 92.6818L465.414 92.2907H470.682L474.486 93.0728L477.51 91.7042L481.997 92.975L484.143 93.8548L491.162 95.1256L495.357 93.1705L499.942 91.2154L507.843 91.7042L509.501 90.1401L513.891 88.6738L519.646 90.5311L522.28 88.3805L532.72 80.8533L534.964 79.387L539.256 77.2364L540.524 73.6194L543.158 69.5137L545.889 68.0473L547.06 65.0169L548.718 62.4752L551.352 61.3999H554.961L561.595 63.0617H563.545L565.887 63.8438L567.935 64.0393L574.271 63.4527L579.633 67.0697L587.632 67.6562L597.875 67.8517L599.631 69.0248L607.63 69.4158L610.556 71.762L617.482 73.4238L625.871 74.6946L629.675 72.6417L638.357 72.5441L643.039 71.4688L655.716 66.6788L659.618 64.1371L671.226 65.7012L674.738 62.4753L679.225 61.4L687.809 60.5202L701.043 58.0763L712.944 61.009L717.334 57.6852L736.53 43.1623L750.771 42.3803L762.944 34.5129L767.821 31.3847L774.552 31.5803L779.332 29.5274L783.136 27.1813L786.063 24.1508L788.404 20.7294L791.135 17.6012L797.914 8.88177L800.255 6.14464L808.57 3.03044L812.667 3.22592L819.69 0L827.299 1.56409L838.127 2.83492L850.187 8.71123H854.674L862.597 13.7945L870.562 19.4725L880.805 19.668L882.951 22.894L891.34 26.2177L898.96 41.5145L909.691 43.274L918.393 56.1351L924.344 60.2409L932.538 61.9028L937.805 55.3531L941.512 53.5935L945.024 53.4959L954.681 54.1802L959.266 56.233L967.167 54.669L974.386 55.06L979.946 58.0904L990.481 57.0151L993.895 57.113L1000.72 57.895L1012.14 61.3165L1018.96 59.2636L1032.91 60.3389L1038.28 61.7075L1054.18 75.1978L1065.98 77.9349L1069.59 77.1529L1081.2 77.0553L1094.46 78.9126L1103.34 80.77L1114.95 90.35L1133.15 95.9221L1139 97.2907L1145.54 96.8019L1151.19 90.0568L1163 90.9365L1177.43 84.2892L1182.7 84.4847L1186.99 84.8757L1193.72 80.1834L1205.62 81.552L1214.7 80.9655L1220.84 73.7316L1238.6 67.6707L1247.18 65.0313L1259.09 62.7829L1273.91 65.9111L1285.52 63.6627L1305.23 66.2044L1315.08 65.7156L1326.1 61.7076L1335.25 64.0538L1354.37 69.2348L1361.69 65.0313L1376.12 65.6178L1388.03 70.7989L1393 72.4607L1391.98 220H2.0379L2 123.362L2.42051 123.28L384.157 86.2299ZM2.42051 123.28L12.1753 121.617L17.4429 119.174L23.881 116.73L31.6848 116.339L37.4401 113.21L42.7077 110.082L48.0728 109.887L55.1938 109.985L56.5595 110.669L58.1202 111.647L60.3638 113.993L64.5584 116.241L66.9971 116.632L72.1673 119.76L75.5814 119.369L78.8981 121.227L80.9466 121.422L86.7019 121.324L89.8234 122.4L94.5057 123.671L96.6517 123.964L100.554 122.791L103.578 122.009L109.627 116.437L115.575 110.571L120.941 107.345L126.696 105.292L131.671 105.683L135.573 103.435L141.036 103.239L145.425 100.209L148.645 99.3292H152.254L158.789 100.796L161.862 105.537L167.13 106.612L169.91 110.327L176.389 115.309L181.559 114.918L186.847 115.847L191.927 118.314L197.613 116.781L199.662 118.052L204.832 119.42L210.392 119.029L215.18 119.217L221.889 121.664L226.947 124.526C226.947 124.526 230.448 123.962 231.805 122.928C233.812 121.399 237.977 121.599 237.977 121.599L247.071 123.409L252.391 120.324L256.196 117.88L261.103 111.093L266.76 107.281L268.126 107.085H270.37L272.586 104.711L275.629 102.756L279.043 100.214L282.067 96.6951L285.969 95.0333L290.47 90.5312L294.469 87.9896L301.297 89.6515L303.639 87.9896L306.272 87.8917L314.271 87.7941L320.514 88.7716L328.388 86.621L334.436 87.012L338.338 88.5761L345.946 88.2828L352.872 87.5985L355.116 84.8614L366.599 82.222L367.867 83.0041L374.793 84.0794L378.499 83.6883L384.157 86.2299" fill="url(#paint0_linear_395_375)"/>
<path d="M683.591 151.374L687.466 149.358L689.884 149.393L694.961 148.426L697.24 146.975L707.812 143.741L716.93 147.609L729.916 142.221L737.238 139.32L748.705 135.59L751.191 134.346L752.297 132.136L756.441 130.202L761 126.195L765.145 122.604L767.631 117.077L772.328 113.9L777.026 112.38L785.591 108.927L790.979 107.821L800.511 110.308L804.103 108.65H807.971L811.563 107.545L821.51 105.611L826.207 101.743L831.319 102.986L837.812 102.848L842.786 106.302L849.693 109.203L860.469 113.347L871.521 115.834L890.171 117.768L898.848 121.913L908.934 123.847L915.841 128.406L922.749 128.268L929.932 124.814L936.564 122.604L944.576 112.657L949.274 110.446L958.944 109.065L962.398 103.539L968.2 99.3942L972.483 97.3219L975.66 94.0063L978.424 92.0723L983.811 90.5526L990.028 90L997.212 90.2763L1003.01 95.2497L1009.92 97.7364L1019 101.743L1024.98 108.098L1030.23 111.828L1040.73 117.216L1057.03 123.018L1073.72 131.998L1074.27 135.452L1094.58 140.701L1106.05 138.353L1112.68 136.557L1124.15 138.491L1144.45 134.485L1157.33 137.833L1177.36 144.05L1187.58 140.182L1198.64 142.53L1210.52 142.254L1220.46 142.807L1229.44 146.675L1235.8 147.918L1242.57 146.122L1252.38 140.043L1260.53 138.524L1267.85 131.616L1274.9 132.307L1280.28 130.373L1290.78 132.722L1301.14 134.379L1304.05 136.313L1307.5 139.353L1315.65 140.872L1320.62 141.978L1329.05 144.05L1337.48 141.425L1347.01 140.182L1356.54 139.076L1366.35 135.208L1377.54 139.491L1393.42 127.957L1391.57 219.674L683.79 219.769L680 151.481L683.591 151.374Z" fill="url(#paint1_linear_395_375)"/>
<path d="M417.273 141.769L419.02 140.805" stroke="#181818" stroke-width="0.724999"/>
<path d="M0 183.638L0.00939599 152.633L5.90776 155.002C5.90776 155.002 12.4712 157.278 15.2828 155.842C16.9479 154.992 19.0589 153.644 19.9739 152.847C21.449 151.562 21.8799 151.738 23.7758 154.397C25.3122 156.552 26.4922 157.245 27.9684 156.86C30.7325 156.138 36.6109 147.115 38.631 144.198C40.1986 141.934 45.7913 137.342 45.7913 137.342L54.8889 141.627C54.8889 141.627 57.4529 143.415 65.4116 143.415C73.6038 143.415 76.3474 143.014 79.8871 141.296L84.2546 139.177L93.3433 142.855C104.753 147.472 120.607 149.733 124.411 147.284C126.539 145.914 127.802 150.911 139.309 148.753L162.391 144.425L180.612 141.899C192.848 140.202 199.064 129.772 205.003 127.685L215.487 124L225.042 125.797C225.042 125.797 236.339 134.068 245.206 132.94C253.089 131.937 256.839 131.922 262.739 132.873C267.858 133.697 271.084 133.763 272.887 133.078C274.341 132.526 278.721 132.342 282.621 132.668C287.936 133.113 290.752 132.847 293.863 131.603C299.838 129.216 306.308 129.422 308.712 132.077C312.999 136.811 327.231 141.344 337.5 141.245C339.452 141.226 343.431 141.166 346.344 141.112C349.883 141.046 353.024 141.717 355.806 143.135C359.233 144.881 361.887 145.268 370.78 145.319C376.725 145.354 382.487 145.849 383.585 146.421C388.486 148.975 412.821 145.758 420.41 141.553C424.173 139.468 425.419 139.257 429.479 140.014C432.069 140.497 439.285 140.642 445.516 140.335C455.133 139.862 458.279 140.127 466.345 142.088C471.57 143.358 476.385 144.821 477.045 145.337C479.197 147.022 494.257 140.825 498.873 138.188C504.461 134.995 505.146 136.776 518.253 141.008C528.884 144.44 531.326 145.494 537.001 146.24C547.045 147.562 567.703 145.071 569.364 146.403C570.073 146.972 574.962 147.662 580.229 147.937C587.965 148.341 590.287 148.121 592.316 146.794C594.088 145.634 595.034 145.484 595.529 146.284C596.347 147.606 608.016 146.803 610.974 145.222C612.242 144.544 616.206 144.729 623.395 145.803C631.933 147.079 634.861 147.151 638.695 146.179C642.378 145.246 643.947 145.251 645.725 146.201C647.283 147.034 650.747 147.233 656.555 146.823C668.166 146.005 676.056 147.91 684.148 153.485L690.381 157.78L701.188 157.807C707.131 157.824 712.798 158.215 713.78 158.68C714.763 159.144 716.981 159.317 718.709 159.064C721.032 158.723 725.719 160.302 736.686 165.12C744.846 168.704 752.662 172.684 754.055 173.964C759.933 179.363 766.745 182.579 772.301 182.579C775.246 182.579 788.317 180.991 792 182.073C792 182.073 811.585 172.252 831.19 171.607L849.645 171L859 175.7C865.949 179.191 872.645 182.62 876 182.62C876 182.62 882.406 188.569 891.974 190.211L909.369 193.196L913.269 190.737C915.414 189.385 919.131 187.978 921.529 187.611C923.927 187.244 927.064 186.353 928.5 185.631C931.983 183.88 948.748 179.729 953.5 182.073C959.138 184.854 964.547 178.447 974.5 176.5C979.916 175.44 989.311 185.606 997.5 185.631C1008.59 185.666 1016.68 184.789 1019.5 183.126C1022.34 181.451 1029 177.5 1047.5 168C1053.5 168 1066.5 184.221 1071.5 187.676C1074.94 188.113 1081.52 193.495 1085.78 192.823C1091.61 191.902 1095.01 191.966 1102.7 193.14C1113.46 194.781 1119.11 194.037 1124.49 190.27C1128.67 187.341 1133.87 185.649 1138.73 185.631C1140.99 185.623 1143.33 185.128 1143.93 184.532C1144.52 183.935 1149.06 183.303 1154.01 183.126C1158.96 182.949 1164.72 182.475 1166.82 182.073C1169.92 181.48 1171.73 181.886 1176.45 184.221C1181.44 186.691 1185.08 187.456 1192.91 187.676C1199.66 187.866 1211.63 186.45 1214.83 185.081C1216.99 184.161 1220.65 183.432 1222.97 183.461C1225.49 183.493 1227.68 182.918 1228.41 182.035C1229.33 180.928 1232.05 180.555 1239.22 180.555C1247.42 180.555 1249.41 180.899 1253.03 182.949C1255.36 184.266 1260.11 186.109 1263.58 187.044C1269.79 188.719 1269.94 188.711 1272.86 186.553C1275.21 184.815 1277.73 184.252 1284.99 183.839C1293.68 183.344 1294.3 183.447 1297.19 185.876C1300.06 188.285 1300.74 188.404 1308.74 187.905C1313.78 187.591 1316.93 173.899 1318.98 174.569C1321.69 175.456 1323.51 175.375 1327.41 174.195C1333.98 172.21 1338.48 172.341 1345.24 174.716C1351.91 177.059 1359.16 177.285 1363.04 175.271C1367.77 172.824 1375.9 172.25 1379.51 174.11C1381.23 175 1384.49 175.728 1386.74 175.728L1392.57 182.035V187.905V220.032H696.285H0V183.638Z" fill="url(#paint2_linear_395_375)"/>
<defs>
<linearGradient id="paint0_linear_395_375" x1="727.378" y1="-48.2297" x2="727.378" y2="182.546" gradientUnits="userSpaceOnUse">
<stop stop-color="#4DA1D1"/>
<stop offset="1" stop-color="#69C6EE" stop-opacity="0"/>
</linearGradient>
<linearGradient id="paint1_linear_395_375" x1="1053.07" y1="79.8279" x2="1053.07" y2="220" gradientUnits="userSpaceOnUse">
<stop stop-color="#00D092"/>
<stop offset="1" stop-color="#21A2EB" stop-opacity="0"/>
<stop offset="1" stop-color="white" stop-opacity="0"/>
</linearGradient>
<linearGradient id="paint2_linear_395_375" x1="696" y1="6" x2="696" y2="220" gradientUnits="userSpaceOnUse">
<stop stop-color="#474747"/>
<stop offset="0.869792" stop-color="#181818"/>
</linearGradient>
</defs>
</svg>
