<svg width="43" height="43" viewBox="0 0 43 43" fill="none" xmlns="http://www.w3.org/2000/svg">
<path d="M29.3923 9.85597C29.1863 9.85597 29.0465 9.88105 28.9014 9.91509V9.93839H28.9265C29.0232 10.1247 29.188 10.2609 29.3099 10.4275C29.4066 10.6192 29.489 10.8109 29.5858 11.0008L29.6109 10.974C29.7793 10.8557 29.8617 10.6658 29.8617 10.3773C29.79 10.2931 29.7793 10.2089 29.7184 10.1265C29.6467 10.0065 29.4926 9.94734 29.3959 9.85239L29.3923 9.85597ZM10.3379 33.4952H8.67704C8.63033 30.8557 8.46893 28.2195 8.19329 25.594H8.17896L5.65271 33.4952H4.38958L1.88125 25.594H1.86333C1.66713 28.2236 1.55062 30.8585 1.51396 33.4952H0C0.0985417 29.9728 0.344 26.669 0.734583 23.5873H2.795L5.18687 30.8686H5.20121L7.61458 23.5873H9.57646C10.01 27.1975 10.2645 30.5031 10.3433 33.4952H10.3379ZM17.535 26.1852C16.8578 29.8492 15.9655 32.5152 14.8619 34.176C13.9983 35.4589 13.0523 36.0985 12.0257 36.0985C11.7515 36.0985 11.4165 36.0161 11.0116 35.8513V34.9662C11.2087 34.9966 11.4416 35.0128 11.7032 35.0128C12.1833 35.0128 12.5685 34.8784 12.8624 34.615C13.2153 34.2925 13.3909 33.9306 13.3909 33.531C13.3909 33.2533 13.253 32.689 12.9788 31.8397L11.1621 26.1852H12.7925L14.095 30.4135C14.3889 31.3739 14.5125 32.044 14.4623 32.4256C15.179 30.5193 15.6771 28.4355 15.9584 26.1852H17.535ZM39.6173 33.4952H34.9053V23.5873H36.4909V32.2769H39.6173V33.4952ZM33.669 33.7371L31.8487 32.8413C32.0099 32.7051 32.1658 32.5582 32.3055 32.3933C33.0813 31.4868 33.4665 30.1394 33.4665 28.3567C33.4665 25.078 32.1801 23.4368 29.6055 23.4368C28.3442 23.4368 27.3587 23.8525 26.6492 24.6856C25.8788 25.5958 25.4918 26.9359 25.4918 28.7079C25.4918 30.4494 25.8322 31.7286 26.5203 32.542C27.1473 33.2766 28.0915 33.6439 29.3565 33.6439C29.8295 33.6439 30.263 33.5848 30.6554 33.4683L33.0294 34.8515L33.6744 33.7371H33.669ZM27.7708 31.5118C27.3677 30.8668 27.167 29.8277 27.167 28.4015C27.167 25.9057 27.9267 24.6569 29.4425 24.6569C30.2362 24.6569 30.822 24.9561 31.1929 25.5528C31.5942 26.2013 31.7949 27.2298 31.7949 28.6398C31.7949 31.1553 31.0352 32.4166 29.5195 32.4166C28.7222 32.4166 28.1399 32.1174 27.7673 31.5208L27.7708 31.5118ZM24.8002 30.7504C24.8002 31.5925 24.4921 32.284 23.8757 32.8215C23.2594 33.359 22.437 33.6278 21.3961 33.6278C20.4232 33.6278 19.4897 33.3196 18.5778 32.7051L19.0024 31.8523C19.7872 32.2464 20.4949 32.4399 21.1345 32.4399C21.7293 32.4399 22.197 32.3091 22.5374 32.0458C22.7075 31.9175 22.8449 31.7508 22.9383 31.5593C23.0317 31.3678 23.0785 31.1569 23.0749 30.9439C23.0749 30.3526 22.6628 29.851 21.9139 29.4299C21.2187 29.0483 19.8302 28.2528 19.8302 28.2528C19.0741 27.7028 18.6978 27.1133 18.6978 26.144C18.6978 25.3378 18.9791 24.6928 19.5399 24.2C20.1043 23.702 20.8299 23.4565 21.7257 23.4565C22.6431 23.4565 23.4816 23.7002 24.2341 24.1911L23.8525 25.0439C23.2512 24.7798 22.6028 24.6396 21.9461 24.6318C21.4391 24.6318 21.0467 24.7537 20.7744 25.0009C20.6362 25.1154 20.5248 25.2588 20.448 25.421C20.3712 25.5832 20.331 25.7603 20.33 25.9398C20.33 26.5274 20.7493 27.0327 21.5233 27.4627C22.2274 27.8479 23.65 28.6631 23.65 28.6631C24.4258 29.2095 24.811 29.7918 24.811 30.7558L24.8002 30.7504ZM41.6097 20.2655C40.6511 20.2405 39.9076 20.3372 39.2859 20.6024C39.1067 20.674 38.82 20.6741 38.795 20.9016C38.8935 20.9966 38.9078 21.1524 38.992 21.285C39.1354 21.5251 39.3826 21.8458 39.612 22.0142C39.8628 22.2113 40.1136 22.4012 40.377 22.5696C40.8428 22.8563 41.3714 23.0265 41.8283 23.315C42.088 23.4834 42.3532 23.6966 42.6166 23.8758C42.7474 23.9653 42.8316 24.1266 43 24.1839V24.1481C42.9176 24.0406 42.8925 23.8847 42.8119 23.7647C42.6918 23.6446 42.5718 23.5371 42.4535 23.4189C42.1018 22.9553 41.682 22.5476 41.2083 22.2095C40.8249 21.9479 39.9864 21.5824 39.8287 21.1435L39.8055 21.1184C40.067 21.0951 40.3788 21.0001 40.6296 20.9285C41.0363 20.821 41.409 20.8443 41.83 20.7385C42.02 20.6902 42.2117 20.6311 42.4034 20.5701V20.4626C42.1884 20.2476 42.0271 19.9556 41.805 19.7549C41.1848 19.2129 40.5235 18.7199 39.827 18.2804C39.4507 18.0403 38.9741 17.8862 38.5782 17.682C38.4348 17.6103 38.1947 17.5745 38.1123 17.4544C37.8973 17.1928 37.7719 16.8453 37.6196 16.5335C37.2678 15.851 36.9409 15.156 36.6396 14.4498C36.4246 13.9804 36.2938 13.5128 36.0304 13.0828C34.7942 11.0456 33.4558 9.81118 31.3972 8.60359C30.9546 8.35276 30.4243 8.24526 29.8635 8.11268C29.5643 8.09834 29.2651 8.07684 28.9677 8.0643C28.7706 7.98009 28.5807 7.75255 28.4122 7.64326C27.7314 7.21326 25.9684 6.28159 25.4667 7.51426C25.1442 8.29184 25.9451 9.05868 26.2228 9.45284C26.4289 9.72697 26.6887 10.0405 26.832 10.3487C26.9162 10.5565 26.9395 10.7697 27.0237 10.9865C27.2136 11.5133 27.3946 12.1009 27.6454 12.5936C27.7762 12.8445 27.9195 13.1078 28.088 13.3336C28.1847 13.4644 28.3495 13.5253 28.3872 13.7403C28.2188 13.984 28.208 14.3387 28.1112 14.6361C27.6812 15.9924 27.8497 17.6694 28.4588 18.6674C28.6505 18.9648 29.1074 19.6241 29.7184 19.3715C30.2559 19.1565 30.1376 18.4757 30.2917 17.8755C30.3275 17.7321 30.3042 17.6372 30.3777 17.5404V17.5673C30.5461 17.9041 30.7145 18.2248 30.8686 18.5617C31.2377 19.1493 31.8827 19.7585 32.422 20.1652C32.7087 20.3802 32.9362 20.7529 33.2945 20.8855V20.8496H33.2677C33.1906 20.7457 33.0885 20.6955 32.9917 20.6113C32.7646 20.389 32.5549 20.1494 32.3647 19.8947C31.8599 19.2049 31.4122 18.4751 31.0263 17.7124C30.8292 17.3362 30.6644 16.9313 30.5067 16.5604C30.435 16.4171 30.435 16.2021 30.315 16.1304C30.1358 16.392 29.8725 16.6195 29.7417 16.942C29.5141 17.458 29.4908 18.0923 29.4048 18.7516C29.3565 18.7641 29.3797 18.7516 29.3565 18.7767C28.973 18.6835 28.8422 18.2858 28.6989 17.9525C28.3406 17.1015 28.2815 15.7344 28.5914 14.7544C28.6756 14.5036 29.034 13.7116 28.8906 13.4716C28.8154 13.244 28.5789 13.1132 28.4481 12.9287C28.2798 12.6885 28.1358 12.4322 28.0181 12.1636C27.7314 11.4936 27.5881 10.7518 27.2763 10.0817C27.133 9.77176 26.8822 9.44747 26.6779 9.16259C26.4504 8.84009 26.1995 8.61255 26.0186 8.23093C25.9595 8.10014 25.8752 7.88334 25.9702 7.74001C25.9953 7.64326 26.0455 7.60564 26.1386 7.57876C26.2963 7.44976 26.7388 7.61818 26.8947 7.68984C27.3372 7.86901 27.7099 8.03743 28.0808 8.28826C28.2492 8.40651 28.4302 8.63405 28.6452 8.69318H28.896C29.2794 8.77739 29.7112 8.71826 30.0695 8.82397C30.7056 9.02822 31.2789 9.32564 31.7931 9.64814C33.3776 10.6603 34.6663 12.0732 35.5287 13.7439C35.6721 14.0198 35.7348 14.2724 35.8656 14.5591C36.1164 15.1503 36.4264 15.747 36.6808 16.3185C36.9316 16.8829 37.1735 17.458 37.5336 17.9256C37.7128 18.1765 38.433 18.3073 38.7555 18.4381C38.9938 18.5456 39.3647 18.6441 39.5797 18.7749C39.9918 19.0257 40.3931 19.3124 40.7801 19.5883C40.9772 19.7245 41.5738 20.0237 41.6097 20.2655Z" fill="white"/>
</svg>
