<svg width="40" height="40" viewBox="0 0 40 40" fill="none" xmlns="http://www.w3.org/2000/svg">
<path d="M19.2874 0C18.9935 0 18.771 0.00216667 18.69 0.0111667C18.604 0.02 18.3302 0.0461667 18.084 0.0658333C12.4027 0.578 7.08121 3.643 3.71071 8.35383C1.83388 10.9733 0.633547 13.9443 0.180214 17.0917C0.0198803 18.19 0.000213623 18.5145 0.000213623 20.004C0.000213623 21.4935 0.0202136 21.818 0.180214 22.9167C1.26688 30.4267 6.61205 36.7365 13.8614 39.0742C15.1595 39.4927 16.528 39.778 18.0842 39.95C18.6902 40.0167 21.3099 40.0167 21.9159 39.95C24.602 39.6528 26.8779 38.9883 29.122 37.8428C29.4662 37.6668 29.5327 37.62 29.4859 37.5807C29.4545 37.5575 27.988 35.591 26.2287 33.214L23.0304 28.894L19.0225 22.9635C16.8174 19.7028 15.003 17.0368 14.9874 17.0368C14.9717 17.0325 14.9562 19.668 14.9482 22.8852C14.937 28.5188 14.9327 28.7455 14.8622 28.8785C14.7605 29.0702 14.6822 29.1482 14.5182 29.2342C14.3932 29.2965 14.2835 29.3083 13.6932 29.3083H13.0165L12.8369 29.195C12.7255 29.1252 12.6349 29.0266 12.5749 28.9097L12.4927 28.7337L12.5015 20.8953L12.5127 13.053L12.6337 12.9005C12.6964 12.8183 12.8294 12.713 12.923 12.6622C13.0834 12.5838 13.146 12.576 13.8224 12.576C14.6202 12.576 14.753 12.6072 14.9602 12.8338C15.019 12.8967 17.189 16.165 19.7852 20.1018C22.4138 24.0865 25.0441 28.0702 27.6759 32.0528L30.8429 36.8498L31.0029 36.7443C32.4225 35.8217 33.9237 34.508 35.1124 33.1398C37.6422 30.235 39.2729 26.6932 39.8202 22.9165C39.9804 21.818 39.9999 21.4932 39.9999 20.004C39.9999 18.5145 39.9799 18.19 39.8202 17.0913C38.7332 9.58133 33.3882 3.2715 26.139 0.933833C24.8604 0.519333 23.4997 0.233833 21.9749 0.0618333C21.6932 0.0325 20.169 0.000833333 19.2877 0.000166667L19.2874 0ZM26.0682 12.0283C26.647 12.0283 26.7485 12.0372 26.8777 12.1067C27.0655 12.2003 27.2177 12.3803 27.2727 12.5678C27.3037 12.6695 27.3117 14.8433 27.3037 19.7418L27.2925 26.771L26.0532 24.871L24.8097 22.971V17.861C24.8097 14.5577 24.8252 12.7005 24.8487 12.6107C24.9112 12.3918 25.048 12.2197 25.2359 12.1182C25.396 12.0358 25.4547 12.0282 26.0687 12.0282L26.0682 12.0283Z" fill="white"/>
</svg>
