<svg width="25" height="25" viewBox="0 0 25 25" fill="none" xmlns="http://www.w3.org/2000/svg">
<path fill-rule="evenodd" clip-rule="evenodd" d="M23.1437 2.32846C23.3487 2.53347 23.4181 2.83779 23.3223 3.11143L16.2785 23.2368C16.1762 23.5289 15.9061 23.729 15.5969 23.7416C15.2877 23.7542 15.0021 23.5768 14.8765 23.294L10.9693 14.5028L2.17811 10.5957C1.89534 10.47 1.71794 10.1844 1.73055 9.87523C1.74316 9.56605 1.94324 9.29589 2.23531 9.19367L22.3607 2.14978C22.6343 2.05401 22.9387 2.12345 23.1437 2.32846ZM12.4412 14.0982L15.4826 20.9414L20.8052 5.73427L12.4412 14.0982ZM19.7378 4.66696L4.53068 9.98947L11.3739 13.0309L19.7378 4.66696Z" fill="white"/>
</svg>
