<?xml version="1.0" encoding="UTF-8" standalone="no"?>
<svg
   role="img"
   viewBox="0 0 24 24"
   version="1.1"
   id="svg6"
   sodipodi:docname="socketdotio.svg"
   inkscape:version="1.1.1 (3bf5ae0d25, 2021-09-20)"
   xmlns:inkscape="http://www.inkscape.org/namespaces/inkscape"
   xmlns:sodipodi="http://sodipodi.sourceforge.net/DTD/sodipodi-0.dtd"
   xmlns="http://www.w3.org/2000/svg"
   xmlns:svg="http://www.w3.org/2000/svg">
  <defs
     id="defs10" />
  <sodipodi:namedview
     id="namedview8"
     pagecolor="#ffffff"
     bordercolor="#666666"
     borderopacity="1.0"
     inkscape:pageshadow="2"
     inkscape:pageopacity="0.0"
     inkscape:pagecheckerboard="0"
     showgrid="false"
     inkscape:zoom="34.958333"
     inkscape:cx="12.014303"
     inkscape:cy="12"
     inkscape:window-width="992"
     inkscape:window-height="518"
     inkscape:window-x="962"
     inkscape:window-y="822"
     inkscape:window-maximized="0"
     inkscape:current-layer="svg6" />
  <title
     id="title2">Socket.io</title>
  <path
     d="M11.9362.0137a12.1694 12.1694 0 00-2.9748.378C4.2816 1.5547.5678 5.7944.0918 10.6012c-.59 4.5488 1.7079 9.2856 5.6437 11.6345 3.8608 2.4179 9.0926 2.3199 12.8734-.223 3.3969-2.206 5.5118-6.2277 5.3858-10.2845-.058-4.0159-2.31-7.9167-5.7588-9.9796C16.354.5876 14.1431.0047 11.9362.0137zm-.063 1.696c4.9448-.007 9.7886 3.8137 10.2815 8.9245.945 5.6597-3.7528 11.4125-9.4875 11.5795-5.4538.544-10.7245-4.0798-10.8795-9.5566-.407-4.4338 2.5159-8.8346 6.6977-10.2995a9.1126 9.1126 0 013.3878-.647zm5.0908 3.2248c-2.6869 2.0849-5.2598 4.3078-7.8886 6.4567 1.2029.017 2.4118.016 3.6208.01 1.41-2.165 2.8589-4.3008 4.2678-6.4667zm-5.6647 7.6536c-1.41 2.166-2.86 4.3088-4.2699 6.4737 2.693-2.0799 5.2548-4.3198 7.9017-6.4557a255.4132 255.4132 0 00-3.6318-.018z"
     id="path4"
     style="fill:#ffffff;fill-opacity:1" />
</svg>
