<svg width="25" height="25" viewBox="0 0 25 25" fill="none" xmlns="http://www.w3.org/2000/svg">
<path fill-rule="evenodd" clip-rule="evenodd" d="M12.5474 4.04245C10.7412 4.04245 9.277 5.50665 9.277 7.31283C9.277 9.11901 10.7412 10.5832 12.5474 10.5832C14.3536 10.5832 15.8178 9.11901 15.8178 7.31283C15.8178 5.50665 14.3536 4.04245 12.5474 4.04245ZM7.7676 7.31283C7.7676 4.67303 9.90758 2.53305 12.5474 2.53305C15.1872 2.53305 17.3272 4.67303 17.3272 7.31283C17.3272 9.95263 15.1872 12.0926 12.5474 12.0926C9.90758 12.0926 7.7676 9.95263 7.7676 7.31283ZM5.14246 16.0082C6.03884 15.1119 7.25459 14.6083 8.52227 14.6083H16.5724C17.8401 14.6083 19.0559 15.1119 19.9522 16.0082C20.8486 16.9046 21.3522 18.1204 21.3522 19.3881V21.4006C21.3522 21.8174 21.0143 22.1553 20.5975 22.1553C20.1807 22.1553 19.8428 21.8174 19.8428 21.4006V19.3881C19.8428 18.5207 19.4982 17.6889 18.8849 17.0756C18.2716 16.4622 17.4398 16.1177 16.5724 16.1177H8.52227C7.65491 16.1177 6.82308 16.4622 6.20977 17.0756C5.59645 17.6889 5.2519 18.5207 5.2519 19.3881V21.4006C5.2519 21.8174 4.914 22.1553 4.49719 22.1553C4.08038 22.1553 3.74249 21.8174 3.74249 21.4006V19.3881C3.74249 18.1204 4.24607 16.9046 5.14246 16.0082Z" fill="white"/>
</svg>
