<svg viewBox="0 0 537 209" fill="none" xmlns="http://www.w3.org/2000/svg">
  <rect x="465.4" y="173.051" width="35.8" height="35.8" fill="#FAFAFA" />
  <rect x="501.199" y="173.051" width="35.8" height="35.8" fill="url(#paint0_linear)" />
  <path fill-rule="evenodd" clip-rule="evenodd" d="M375.822 205.72C377.207 207.105 378.889 207.798 380.868 207.798H409.067C411.244 207.798 412.926 207.105 414.113 205.72C415.498 204.335 416.191 202.653 416.191 200.674V134.904C416.191 132.867 417.842 131.216 419.878 131.216H460.418C484.362 131.216 503.063 125.774 516.519 114.89C530.173 103.809 537 87.4832 537 65.9137C537 44.3441 530.173 28.0185 516.519 16.9368C502.865 5.65734 484.165 0.0175781 460.418 0.0175781L419.285 0.0175781C417.248 0.0175781 415.597 1.66861 415.597 3.70526V29.2779C415.597 31.3146 413.946 32.9656 411.909 32.9656H377.432C375.395 32.9656 373.744 34.6166 373.744 36.6533V200.674C373.744 202.653 374.437 204.335 375.822 205.72ZM458.947 98.2778C470.424 98.2778 479.23 95.6064 485.364 90.2634C491.499 84.7226 494.566 76.6093 494.566 65.9234C494.566 55.6334 491.598 47.619 485.661 41.8803C479.725 35.9437 470.82 32.9754 458.947 32.9754H437.278H419.297C417.261 32.9754 415.61 34.6265 415.61 36.6631V65.6266V94.5901C415.61 96.6268 417.261 98.2778 419.297 98.2778H458.947Z" fill="#FAFAFA" />
  <path d="M75.3946 207.798C69.6559 207.798 65.8961 205.028 64.1151 199.487L0.593658 8.92246L0 6.251C0 4.47002 0.593658 2.98588 1.78097 1.79857C2.96829 0.61124 4.45244 0.0175781 6.23341 0.0175781L32.3544 0.0175781C34.9269 0.0175781 36.9057 0.710182 38.2909 2.09539C39.874 3.2827 40.9624 4.76685 41.5561 6.54782L91.7202 159.415L141.884 6.54782C142.28 4.96473 143.269 3.48059 144.853 2.09539C146.436 0.710182 148.513 0.0175781 151.086 0.0175781L177.207 0.0175781C178.79 0.0175781 180.175 0.61124 181.363 1.79857C182.748 2.98588 183.44 4.47002 183.44 6.251L182.847 8.92246L119.325 199.487C117.544 205.028 113.784 207.798 108.046 207.798H75.3946Z" fill="#FAFAFA" />
  <path d="M189.675 207.798C187.894 207.798 186.409 207.204 185.222 206.017C184.035 204.83 183.441 203.346 183.441 201.565C183.441 200.377 183.738 199.19 184.332 198.003L250.821 101.83L188.487 9.81295C187.894 8.82353 187.597 7.63619 187.597 6.251C187.597 4.47002 188.19 2.98588 189.378 1.79857C190.565 0.611246 192.049 0.0175781 193.83 0.0175781L224.107 0.0175781C227.669 0.0175781 230.736 1.89751 233.308 5.65734L276.942 69.7724L320.873 5.65734C323.446 1.89751 326.513 0.0175781 330.075 0.0175781L358.867 0.0175781C360.648 0.0175781 362.132 0.611246 363.32 1.79857C364.507 2.98588 365.101 4.47002 365.101 6.251C365.101 7.63619 364.705 8.82353 363.913 9.81295L301.876 101.83L368.366 198.003C369.157 199.586 369.553 200.773 369.553 201.565C369.553 203.346 368.86 204.83 367.475 206.017C366.288 207.204 364.903 207.798 363.32 207.798H331.856C328.096 207.798 325.128 206.017 322.951 202.455L275.458 135.372L228.856 202.455C226.284 206.017 223.216 207.798 219.654 207.798H189.675Z" fill="#FAFAFA" />
  <defs>
    <linearGradient id="paint0_linear" x1="501.199" y1="190.951" x2="536.999" y2="190.951" gradientUnits="userSpaceOnUse">
      <stop stop-color="white" />
      <stop offset="1" stop-color="white" stop-opacity="0" />
    </linearGradient>
  </defs>
</svg>